<svg width="71" height="69" viewBox="0 0 71 69" fill="none" xmlns="http://www.w3.org/2000/svg">
<path d="M0.871429 24.2274C0.948952 23.875 1.20625 23.5892 1.5486 23.4751L24.9769 15.6657C25.5139 15.4869 26.0948 15.777 26.2739 16.3141C26.453 16.8515 26.1626 17.4322 25.6253 17.6112L6.0554 24.1345L31.0675 28.4844L63.7764 4.89417L30.0047 16.1515C29.4675 16.3301 28.8867 16.0403 28.7076 15.503C28.5285 14.9657 28.8189 14.3849 29.3562 14.2059L69.498 0.825278C69.5116 0.820766 69.5213 0.819809 69.5331 0.816801C69.824 0.731215 70.1466 0.773872 70.4089 0.957211C70.8118 1.23831 70.9587 1.76563 70.7592 2.21448L43.5795 63.3688C43.4443 63.6733 43.1696 63.8928 42.843 63.958C42.7763 63.9713 42.7092 63.9779 42.6426 63.9779C42.3825 63.9779 42.1292 63.8787 41.9368 63.6964L30.5955 52.9388L20.5403 59.2894C20.5357 59.2924 20.5305 59.2931 20.5257 59.2951C20.3678 59.3915 20.1853 59.4478 19.9935 59.4478C19.955 59.4478 19.9165 59.4456 19.8775 59.4413C19.4048 59.3878 19.0308 59.0161 18.9746 58.5436L16.7536 39.8612L1.1703 25.1946C0.907387 24.9473 0.793915 24.5799 0.871429 24.2274ZM5.06459 26.0436L17.8142 38.0431L28.7424 30.1614L5.06459 26.0436ZM26.0036 45.7568L40.8331 59.8227L35.2721 36.761L26.0036 45.7568ZM24.9581 47.5916L21.9607 55.9667L29.0604 51.4826L24.9581 47.5916ZM20.4963 53.9724L23.5573 45.4197C23.5594 45.4139 23.5625 45.4087 23.5647 45.403C23.6175 45.2635 23.6994 45.1353 23.8086 45.0293L38.9832 30.3012C39.3893 29.9069 40.0386 29.9166 40.4331 30.3228C40.8275 30.7292 40.8178 31.3784 40.4115 31.7727L36.9815 35.1018L42.9316 59.777L66.7319 6.22635L43.356 28.9147C42.9498 29.3091 42.3005 29.2996 41.9061 28.8931C41.5116 28.4866 41.5213 27.8375 41.9277 27.4432L59.0218 10.852L18.8173 39.8485L20.4963 53.9724Z" fill="#374C5B"/>
<path d="M4.13783 52.653C4.40019 52.653 4.66269 52.5529 4.86285 52.3527L13.9228 43.2928C14.3233 42.8922 14.3233 42.243 13.9228 41.8426C13.5224 41.4423 12.8731 41.4423 12.4728 41.8426L3.4128 50.9026C3.01235 51.3031 3.01235 51.9523 3.4128 52.3527C3.61296 52.5529 3.87546 52.653 4.13783 52.653Z" fill="#374C5B"/>
<path d="M19.9923 68.508C20.2547 68.508 20.5172 68.4079 20.7173 68.2077L29.7773 59.1478C30.1777 58.7472 30.1777 58.098 29.7773 57.6976C29.3768 57.2973 28.7276 57.2973 28.3273 57.6976L19.2673 66.7575C18.8668 67.1581 18.8668 67.8073 19.2673 68.2077C19.4676 68.4077 19.73 68.508 19.9923 68.508Z" fill="#374C5B"/>
<path d="M4.13783 68.508C4.40019 68.508 4.66269 68.4079 4.86285 68.2077L13.9228 59.1478C14.3233 58.7472 14.3233 58.098 13.9228 57.6976C13.5224 57.2973 12.8731 57.2973 12.4728 57.6976L3.4128 66.7575C3.01235 67.1581 3.01235 67.8073 3.4128 68.2077C3.61296 68.4077 3.87546 68.508 4.13783 68.508Z" fill="#374C5B"/>
</svg>
