<svg width="71" height="68" viewBox="0 0 71 68" fill="none" xmlns="http://www.w3.org/2000/svg">
<path d="M0.871674 23.5846C0.949196 23.2321 1.2065 22.9464 1.54884 22.8322L24.9771 15.0229C25.5141 14.844 26.0951 15.1342 26.2742 15.6713C26.4533 16.2086 26.1629 16.7894 25.6256 16.9684L6.05564 23.4916L31.0678 27.8416L63.7767 4.25134L30.0049 15.5086C29.4678 15.6873 28.887 15.3975 28.7079 14.8602C28.5288 14.3229 28.8192 13.7421 29.3565 13.5631L69.4982 0.182455C69.5119 0.177944 69.5216 0.176987 69.5333 0.173979C69.8243 0.0883931 70.1468 0.131049 70.4092 0.314389C70.8121 0.595483 70.9589 1.12281 70.7594 1.57166L43.5797 62.726C43.4445 63.0304 43.1699 63.25 42.8432 63.3152C42.7765 63.3285 42.7094 63.335 42.6428 63.335C42.3828 63.335 42.1294 63.2359 41.9371 63.0535L30.5957 52.296L20.5406 58.6465C20.5359 58.6496 20.5307 58.6502 20.526 58.6523C20.368 58.7487 20.1855 58.805 19.9937 58.805C19.9553 58.805 19.9167 58.8028 19.8778 58.7984C19.405 58.745 19.0311 58.3732 18.9749 57.9007L16.7539 39.2184L1.17054 24.5518C0.907631 24.3044 0.794159 23.9371 0.871674 23.5846ZM5.06483 25.4008L17.8144 37.4003L28.7426 29.5186L5.06483 25.4008ZM26.0039 45.114L40.8333 59.1799L35.2723 36.1182L26.0039 45.114ZM24.9584 46.9488L21.961 55.3239L29.0606 50.8398L24.9584 46.9488ZM20.4966 53.3296L23.5576 44.7768C23.5596 44.7711 23.5628 44.7659 23.5649 44.7602C23.6177 44.6207 23.6996 44.4925 23.8088 44.3865L38.9834 29.6583C39.3896 29.264 40.0389 29.2738 40.4333 29.6799C40.8277 30.0864 40.818 30.7355 40.4117 31.1298L36.9817 34.4589L42.9318 59.1342L66.7321 5.58353L43.3562 28.2719C42.95 28.6663 42.3007 28.6567 41.9063 28.2503C41.5119 27.8438 41.5216 27.1947 41.9279 26.8004L59.022 10.2091L18.8175 39.2057L20.4966 53.3296Z" fill="#F15C27"/>
<path d="M4.13807 52.0101C4.40044 52.0101 4.66293 51.9101 4.86309 51.7099L13.9231 42.6499C14.3235 42.2494 14.3235 41.6002 13.9231 41.1998C13.5226 40.7995 12.8733 40.7995 12.473 41.1998L3.41305 50.2597C3.0126 50.6603 3.0126 51.3095 3.41305 51.7099C3.61321 51.9101 3.87571 52.0101 4.13807 52.0101Z" fill="#F15C27"/>
<path d="M19.9928 67.8651C20.2552 67.8651 20.5177 67.7651 20.7178 67.5649L29.7778 58.5049C30.1782 58.1043 30.1782 57.4552 29.7778 57.0548C29.3773 56.6544 28.7281 56.6544 28.3277 57.0548L19.2678 66.1147C18.8673 66.5153 18.8673 67.1644 19.2678 67.5649C19.4681 67.7649 19.7304 67.8651 19.9928 67.8651Z" fill="#F15C27"/>
<path d="M4.13807 67.8651C4.40044 67.8651 4.66293 67.7651 4.86309 67.5649L13.9231 58.5049C14.3235 58.1043 14.3235 57.4552 13.9231 57.0548C13.5226 56.6544 12.8733 56.6544 12.473 57.0548L3.41305 66.1147C3.0126 66.5153 3.0126 67.1644 3.41305 67.5649C3.61321 67.7649 3.87571 67.8651 4.13807 67.8651Z" fill="#F15C27"/>
</svg>
